<?xml version="1.0" encoding="UTF-8"?>
<svg id="Ebene_1" xmlns="http://www.w3.org/2000/svg" version="1.1" viewBox="0 0 78.61 79">
  <!-- Generator: Adobe Illustrator 30.0.0, SVG Export Plug-In . SVG Version: 2.1.1 Build 123)  -->
  <defs>
    <style>
      .st0 {
        fill: #2a3647;
      }

      .st1 {
        fill: #fff;
      }

      .st2 {
        fill: #29abe2;
      }
    </style>
  </defs>
  <rect class="st1" x="1.02" y=".64" width="77.41" height="77.41" rx="14" ry="14"/>
  <g>
    <path class="st0" d="M58.71,5.36h-12.35v14.21h12.35V5.36Z"/>
    <path class="st0" d="M46.35,31.12h12.35v20.04c.06,4.82-1.32,9.55-3.94,13.59-2.59,3.92-7.6,8.59-16.86,8.59-10.09,0-15.97-4.77-19.14-7.39l7.79-9.61c3.1,2.53,6.08,4.61,11.4,4.61,4.03,0,5.63-1.64,6.57-3.07,1.28-1.99,1.94-4.31,1.9-6.68l-.07-20.08Z"/>
    <path class="st2" d="M40.05,22.15h-12.35v12.41h12.35v-12.41Z"/>
  </g>
</svg>