<svg width="76" height="76" viewBox="0 0 76 76" fill="none" xmlns="http://www.w3.org/2000/svg">
<mask id="mask0_405308_4583" style="mask-type:alpha" maskUnits="userSpaceOnUse" x="26" y="14" width="24" height="25">
<rect x="26" y="14.5" width="24" height="24" fill="#D9D9D9"/>
</mask>
<g mask="url(#mask0_405308_4583)">
<path d="M38.0002 33.7C36.8802 33.7 35.8102 33.875 34.7902 34.225C33.7702 34.575 32.8402 35.1 32.0002 35.8V36.1H44.0002V35.8C43.1602 35.1 42.2302 34.575 41.2102 34.225C40.1902 33.875 39.1202 33.7 38.0002 33.7ZM29.6002 34.72C30.6802 33.66 31.9352 32.825 33.3652 32.215C34.7952 31.605 36.3402 31.3 38.0002 31.3C39.6602 31.3 41.2052 31.605 42.6352 32.215C44.0652 32.825 45.3202 33.66 46.4002 34.72V19.3H29.6002V34.72ZM38.0002 28.9C36.8402 28.9 35.8502 28.49 35.0302 27.67C34.2102 26.85 33.8002 25.86 33.8002 24.7C33.8002 23.54 34.2102 22.55 35.0302 21.73C35.8502 20.91 36.8402 20.5 38.0002 20.5C39.1602 20.5 40.1502 20.91 40.9702 21.73C41.7902 22.55 42.2002 23.54 42.2002 24.7C42.2002 25.86 41.7902 26.85 40.9702 27.67C40.1502 28.49 39.1602 28.9 38.0002 28.9ZM38.0002 26.5C38.5002 26.5 38.9252 26.325 39.2752 25.975C39.6252 25.625 39.8002 25.2 39.8002 24.7C39.8002 24.2 39.6252 23.775 39.2752 23.425C38.9252 23.075 38.5002 22.9 38.0002 22.9C37.5002 22.9 37.0752 23.075 36.7252 23.425C36.3752 23.775 36.2002 24.2 36.2002 24.7C36.2002 25.2 36.3752 25.625 36.7252 25.975C37.0752 26.325 37.5002 26.5 38.0002 26.5ZM29.6002 38.5C28.9402 38.5 28.3752 38.265 27.9052 37.795C27.4352 37.325 27.2002 36.76 27.2002 36.1V19.3C27.2002 18.64 27.4352 18.075 27.9052 17.605C28.3752 17.135 28.9402 16.9 29.6002 16.9H30.8002V15.7C30.8002 15.0373 31.3375 14.5 32.0002 14.5C32.6629 14.5 33.2002 15.0373 33.2002 15.7V16.9H42.8002V15.7C42.8002 15.0373 43.3375 14.5 44.0002 14.5C44.6629 14.5 45.2002 15.0373 45.2002 15.7V16.9H46.4002C47.0602 16.9 47.6252 17.135 48.0952 17.605C48.5652 18.075 48.8002 18.64 48.8002 19.3V36.1C48.8002 36.76 48.5652 37.325 48.0952 37.795C47.6252 38.265 47.0602 38.5 46.4002 38.5H29.6002Z" fill="white"/>
</g>
<path d="M11.4453 48.0859C10.8151 48.0859 10.2474 48.1953 9.74219 48.4141C9.24219 48.6276 8.8151 48.9401 8.46094 49.3516C8.11198 49.7578 7.84375 50.25 7.65625 50.8281C7.46875 51.4062 7.375 52.0573 7.375 52.7812C7.375 53.7396 7.52344 54.5729 7.82031 55.2812C8.1224 55.9844 8.57031 56.5286 9.16406 56.9141C9.76302 57.2995 10.5104 57.4922 11.4062 57.4922C11.9167 57.4922 12.3958 57.4505 12.8438 57.3672C13.2969 57.2786 13.737 57.1693 14.1641 57.0391V58.1953C13.7474 58.3516 13.3099 58.4661 12.8516 58.5391C12.3932 58.6172 11.849 58.6562 11.2188 58.6562C10.0573 58.6562 9.08594 58.4167 8.30469 57.9375C7.52865 57.4531 6.94531 56.7708 6.55469 55.8906C6.16927 55.0104 5.97656 53.9714 5.97656 52.7734C5.97656 51.9089 6.09635 51.1198 6.33594 50.4062C6.58073 49.6875 6.9349 49.0677 7.39844 48.5469C7.86719 48.026 8.4401 47.625 9.11719 47.3438C9.79948 47.0573 10.5807 46.9141 11.4609 46.9141C12.0391 46.9141 12.5964 46.9714 13.1328 47.0859C13.6693 47.2005 14.1536 47.3646 14.5859 47.5781L14.0547 48.7031C13.6901 48.5365 13.2891 48.3932 12.8516 48.2734C12.4193 48.1484 11.9505 48.0859 11.4453 48.0859ZM23.8281 54.2031C23.8281 54.9062 23.737 55.5339 23.5547 56.0859C23.3724 56.638 23.1094 57.1042 22.7656 57.4844C22.4219 57.8646 22.0052 58.1562 21.5156 58.3594C21.0312 58.5573 20.4818 58.6562 19.8672 58.6562C19.2943 58.6562 18.7682 58.5573 18.2891 58.3594C17.8151 58.1562 17.4036 57.8646 17.0547 57.4844C16.7109 57.1042 16.4427 56.638 16.25 56.0859C16.0625 55.5339 15.9688 54.9062 15.9688 54.2031C15.9688 53.2656 16.1276 52.4688 16.4453 51.8125C16.763 51.151 17.2161 50.6484 17.8047 50.3047C18.3984 49.9557 19.1042 49.7812 19.9219 49.7812C20.7031 49.7812 21.3854 49.9557 21.9688 50.3047C22.5573 50.6536 23.013 51.1589 23.3359 51.8203C23.6641 52.4766 23.8281 53.2708 23.8281 54.2031ZM17.3125 54.2031C17.3125 54.8906 17.4036 55.487 17.5859 55.9922C17.7682 56.4974 18.0495 56.888 18.4297 57.1641C18.8099 57.4401 19.2995 57.5781 19.8984 57.5781C20.4922 57.5781 20.9792 57.4401 21.3594 57.1641C21.7448 56.888 22.0286 56.4974 22.2109 55.9922C22.3932 55.487 22.4844 54.8906 22.4844 54.2031C22.4844 53.5208 22.3932 52.9323 22.2109 52.4375C22.0286 51.9375 21.7474 51.5521 21.3672 51.2812C20.987 51.0104 20.4948 50.875 19.8906 50.875C19 50.875 18.3464 51.1693 17.9297 51.7578C17.5182 52.3464 17.3125 53.1615 17.3125 54.2031ZM30.125 49.7812C31.1406 49.7812 31.9089 50.0312 32.4297 50.5312C32.9505 51.026 33.2109 51.8229 33.2109 52.9219V58.5H31.9297V53.0078C31.9297 52.2943 31.7656 51.7604 31.4375 51.4062C31.1146 51.0521 30.6172 50.875 29.9453 50.875C28.9974 50.875 28.3307 51.1432 27.9453 51.6797C27.5599 52.2161 27.3672 52.9948 27.3672 54.0156V58.5H26.0703V49.9375H27.1172L27.3125 51.1719H27.3828C27.5651 50.8698 27.7969 50.6172 28.0781 50.4141C28.3594 50.2057 28.6745 50.0495 29.0234 49.9453C29.3724 49.8359 29.7396 49.7812 30.125 49.7812ZM38.6484 57.5938C38.862 57.5938 39.0807 57.5755 39.3047 57.5391C39.5286 57.5026 39.7109 57.4583 39.8516 57.4062V58.4141C39.7005 58.4818 39.4896 58.5391 39.2188 58.5859C38.9531 58.6328 38.6927 58.6562 38.4375 58.6562C37.9844 58.6562 37.5729 58.5781 37.2031 58.4219C36.8333 58.2604 36.5365 57.9896 36.3125 57.6094C36.0938 57.2292 35.9844 56.7031 35.9844 56.0312V50.9531H34.7656V50.3203L35.9922 49.8125L36.5078 47.9531H37.2891V49.9375H39.7969V50.9531H37.2891V55.9922C37.2891 56.5286 37.4115 56.9297 37.6562 57.1953C37.9062 57.4609 38.237 57.5938 38.6484 57.5938ZM44.7891 49.7969C45.8099 49.7969 46.5677 50.026 47.0625 50.4844C47.5573 50.9427 47.8047 51.6745 47.8047 52.6797V58.5H46.8594L46.6094 57.2344H46.5469C46.3073 57.5469 46.0573 57.8099 45.7969 58.0234C45.5365 58.2318 45.2344 58.3906 44.8906 58.5C44.5521 58.6042 44.1354 58.6562 43.6406 58.6562C43.1198 58.6562 42.6562 58.5651 42.25 58.3828C41.849 58.2005 41.5312 57.9245 41.2969 57.5547C41.0677 57.1849 40.9531 56.7161 40.9531 56.1484C40.9531 55.2943 41.2917 54.638 41.9688 54.1797C42.6458 53.7214 43.6771 53.4714 45.0625 53.4297L46.5391 53.3672V52.8438C46.5391 52.1042 46.3802 51.5859 46.0625 51.2891C45.7448 50.9922 45.2969 50.8438 44.7188 50.8438C44.2708 50.8438 43.8438 50.9089 43.4375 51.0391C43.0312 51.1693 42.6458 51.3229 42.2812 51.5L41.8828 50.5156C42.2682 50.3177 42.7109 50.1484 43.2109 50.0078C43.7109 49.8672 44.237 49.7969 44.7891 49.7969ZM46.5234 54.2812L45.2188 54.3359C44.151 54.3776 43.3984 54.5521 42.9609 54.8594C42.5234 55.1667 42.3047 55.6016 42.3047 56.1641C42.3047 56.6536 42.4531 57.0156 42.75 57.25C43.0469 57.4844 43.4401 57.6016 43.9297 57.6016C44.6901 57.6016 45.3125 57.3906 45.7969 56.9688C46.2812 56.5469 46.5234 55.9141 46.5234 55.0703V54.2812ZM53.9062 58.6562C53.1354 58.6562 52.4557 58.4974 51.8672 58.1797C51.2786 57.862 50.8203 57.3776 50.4922 56.7266C50.1641 56.0755 50 55.2552 50 54.2656C50 53.2292 50.1719 52.3828 50.5156 51.7266C50.8646 51.0651 51.3438 50.5755 51.9531 50.2578C52.5625 49.9401 53.2552 49.7812 54.0312 49.7812C54.4583 49.7812 54.8698 49.8255 55.2656 49.9141C55.6667 49.9974 55.9948 50.1042 56.25 50.2344L55.8594 51.3203C55.599 51.2161 55.2969 51.1224 54.9531 51.0391C54.6146 50.9557 54.2969 50.9141 54 50.9141C53.4062 50.9141 52.9115 51.0417 52.5156 51.2969C52.125 51.5521 51.8307 51.9271 51.6328 52.4219C51.4401 52.9167 51.3438 53.526 51.3438 54.25C51.3438 54.9427 51.4375 55.5339 51.625 56.0234C51.8177 56.513 52.1016 56.888 52.4766 57.1484C52.8568 57.4036 53.3307 57.5312 53.8984 57.5312C54.3516 57.5312 54.7604 57.4844 55.125 57.3906C55.4896 57.2917 55.8203 57.1771 56.1172 57.0469V58.2031C55.8307 58.349 55.5104 58.4609 55.1562 58.5391C54.8073 58.6172 54.3906 58.6562 53.9062 58.6562ZM60.9141 57.5938C61.1276 57.5938 61.3464 57.5755 61.5703 57.5391C61.7943 57.5026 61.9766 57.4583 62.1172 57.4062V58.4141C61.9661 58.4818 61.7552 58.5391 61.4844 58.5859C61.2188 58.6328 60.9583 58.6562 60.7031 58.6562C60.25 58.6562 59.8385 58.5781 59.4688 58.4219C59.099 58.2604 58.8021 57.9896 58.5781 57.6094C58.3594 57.2292 58.25 56.7031 58.25 56.0312V50.9531H57.0312V50.3203L58.2578 49.8125L58.7734 47.9531H59.5547V49.9375H62.0625V50.9531H59.5547V55.9922C59.5547 56.5286 59.6771 56.9297 59.9219 57.1953C60.1719 57.4609 60.5026 57.5938 60.9141 57.5938ZM69.3906 56.1562C69.3906 56.7031 69.2526 57.1641 68.9766 57.5391C68.7057 57.9089 68.3151 58.1875 67.8047 58.375C67.2995 58.5625 66.6953 58.6562 65.9922 58.6562C65.3932 58.6562 64.875 58.6094 64.4375 58.5156C64 58.4219 63.6172 58.2891 63.2891 58.1172V56.9219C63.638 57.0938 64.0547 57.25 64.5391 57.3906C65.0234 57.5312 65.5182 57.6016 66.0234 57.6016C66.763 57.6016 67.2995 57.4818 67.6328 57.2422C67.9661 57.0026 68.1328 56.6771 68.1328 56.2656C68.1328 56.0312 68.0651 55.8255 67.9297 55.6484C67.7995 55.4661 67.5781 55.2917 67.2656 55.125C66.9531 54.9531 66.5208 54.7656 65.9688 54.5625C65.4219 54.3542 64.9479 54.1484 64.5469 53.9453C64.151 53.737 63.8438 53.4844 63.625 53.1875C63.4115 52.8906 63.3047 52.5052 63.3047 52.0312C63.3047 51.3073 63.5964 50.7526 64.1797 50.3672C64.7682 49.9766 65.5391 49.7812 66.4922 49.7812C67.0078 49.7812 67.4896 49.8333 67.9375 49.9375C68.3906 50.0365 68.8125 50.1719 69.2031 50.3438L68.7656 51.3828C68.4115 51.2318 68.0339 51.1042 67.6328 51C67.2318 50.8958 66.8229 50.8438 66.4062 50.8438C65.8073 50.8438 65.3464 50.9427 65.0234 51.1406C64.7057 51.3385 64.5469 51.6094 64.5469 51.9531C64.5469 52.2188 64.6198 52.4375 64.7656 52.6094C64.9167 52.7812 65.1562 52.9427 65.4844 53.0938C65.8125 53.2448 66.2448 53.4219 66.7812 53.625C67.3177 53.8229 67.7812 54.0286 68.1719 54.2422C68.5625 54.4505 68.862 54.7057 69.0703 55.0078C69.2839 55.3047 69.3906 55.6875 69.3906 56.1562Z" fill="white"/>
</svg>
