<?xml version="1.0" encoding="UTF-8"?>
<svg id="Ebene_1" xmlns="http://www.w3.org/2000/svg" version="1.1" viewBox="0 0 42 42">
  <!-- Generator: Adobe Illustrator 30.1.0, SVG Export Plug-In . SVG Version: 2.1.1 Build 136)  -->
  <defs>
    <style>
      .st0 {
        fill: #fff;
      }

      .st1 {
        fill: #d1d1d1;
        stroke: #fff;
        stroke-miterlimit: 10;
        stroke-width: 1.2px;
      }
    </style>
  </defs>
  <circle class="st1" cx="21" cy="21" r="20.33"/>
  <path class="st0" d="M21.09,21.08c-1.01,0-1.88-.36-2.6-1.08-.72-.72-1.08-1.59-1.08-2.6s.36-1.88,1.08-2.6,1.59-1.08,2.6-1.08,1.88.36,2.6,1.08c.72.72,1.08,1.59,1.08,2.6s-.36,1.88-1.08,2.6c-.72.72-1.59,1.08-2.6,1.08ZM26.62,28.45h-11.05c-.51,0-.94-.18-1.3-.54-.36-.36-.54-.79-.54-1.3v-.74c0-.52.13-1,.4-1.44.27-.44.63-.77,1.07-1,.95-.48,1.92-.83,2.9-1.07.98-.24,1.98-.36,2.99-.36s2.01.12,2.99.36,1.95.59,2.9,1.07c.45.23.8.56,1.07,1s.4.92.4,1.44v.74c0,.51-.18.94-.54,1.3-.36.36-.79.54-1.3.54h.01ZM15.57,26.61h11.05v-.74c0-.17-.04-.32-.13-.46-.08-.14-.2-.25-.33-.32-.83-.41-1.67-.73-2.51-.93-.84-.21-1.7-.31-2.56-.31s-1.71.1-2.56.31c-.84.21-1.68.52-2.51.93-.14.08-.25.18-.33.32s-.13.29-.13.46v.74h0ZM21.09,19.24c.51,0,.94-.18,1.3-.54.36-.36.54-.79.54-1.3s-.18-.94-.54-1.3c-.36-.36-.79-.54-1.3-.54s-.94.18-1.3.54c-.36.36-.54.79-.54,1.3s.18.94.54,1.3c.36.36.79.54,1.3.54Z"/>
</svg>