<?xml version="1.0" encoding="UTF-8"?>
<svg id="Ebene_1" xmlns="http://www.w3.org/2000/svg" xmlns:xlink="http://www.w3.org/1999/xlink" version="1.1" viewBox="0 0 20 8">
  <!-- Generator: Adobe Illustrator 30.1.0, SVG Export Plug-In . SVG Version: 2.1.1 Build 136)  -->
  <defs>
    <style>
      .st0 {
        fill: none;
      }

      .st1 {
        fill: #b279f5;
      }

      .st2 {
        clip-path: url(#clippath);
      }
    </style>
    <clipPath id="clippath">
      <rect class="st0" width="20" height="7.45"/>
    </clipPath>
  </defs>
  <g class="st2">
    <g>
      <path class="st1" d="M18.9,7.45H1.1c-.29,0-.57-.12-.77-.32-.21-.21-.32-.49-.32-.78s.12-.57.32-.78c.21-.21.48-.32.77-.32h17.81c.29,0,.57.12.77.32.21.21.32.49.32.78s-.12.57-.32.78c-.21.21-.48.32-.77.32Z"/>
      <path class="st1" d="M18.9,2.21H1.1c-.29,0-.57-.12-.77-.32-.21-.21-.32-.49-.32-.78S.12.53.32.32c.21-.21.48-.32.77-.32h17.81c.29,0,.57.12.77.32.21.21.32.49.32.78s-.12.57-.32.78c-.21.21-.48.32-.77.32Z"/>
    </g>
  </g>
</svg>