<?xml version="1.0" encoding="UTF-8"?>
<svg id="Ebene_1" xmlns="http://www.w3.org/2000/svg" xmlns:xlink="http://www.w3.org/1999/xlink" version="1.1" viewBox="0 0 20 15">
  <!-- Generator: Adobe Illustrator 30.1.0, SVG Export Plug-In . SVG Version: 2.1.1 Build 136)  -->
  <defs>
    <style>
      .st0 {
        fill: none;
      }

      .st1 {
        fill: #f175fa;
      }

      .st2 {
        clip-path: url(#clippath);
      }
    </style>
    <clipPath id="clippath">
      <rect class="st0" width="20" height="14.51"/>
    </clipPath>
  </defs>
  <g class="st2">
    <g>
      <path class="st1" d="M18.9,14.51c-.23,0-.46-.07-.65-.21l-8.25-6.08L1.75,14.3c-.12.09-.25.15-.39.18-.14.03-.29.04-.43.02-.14-.02-.28-.07-.4-.14-.12-.07-.23-.17-.32-.29-.09-.12-.15-.25-.18-.39-.03-.14-.04-.28-.02-.43.04-.29.2-.55.43-.72l8.9-6.57c.19-.14.42-.21.65-.21s.46.08.65.21l8.9,6.57c.19.14.32.33.39.55.07.22.07.46,0,.68-.07.22-.21.41-.4.55-.19.14-.41.21-.64.21Z"/>
      <path class="st1" d="M18.9,8.76c-.23,0-.46-.07-.65-.21L10,2.46,1.75,8.55c-.23.17-.53.25-.81.2-.29-.04-.55-.2-.72-.43-.17-.23-.25-.53-.2-.81.04-.29.2-.55.43-.72L9.35.21c.19-.14.42-.21.65-.21s.46.08.65.21l8.9,6.57c.19.14.32.33.39.55.07.22.07.46,0,.68-.07.22-.21.41-.4.55-.19.14-.41.21-.64.21Z"/>
    </g>
  </g>
</svg>