<?xml version="1.0" encoding="UTF-8"?>
<svg id="Ebene_1" xmlns="http://www.w3.org/2000/svg" version="1.1" viewBox="0 0 20 15">
  <!-- Generator: Adobe Illustrator 30.1.0, SVG Export Plug-In . SVG Version: 2.1.1 Build 136)  -->
  <defs>
    <style>
      .st0 {
        fill: #1fd7c1;
      }
    </style>
  </defs>
  <path class="st0" d="M10,8.76c-.23,0-.46-.07-.65-.21L.44,1.98c-.12-.09-.21-.19-.29-.32-.07-.12-.12-.26-.14-.4-.04-.29.03-.58.2-.81C.39.21.65.06.93.01c.29-.04.58.03.81.2l8.25,6.08L18.25.21c.12-.09.25-.15.39-.18.14-.03.29-.04.43-.02.14.02.28.07.4.14.12.07.23.17.32.29.09.12.15.25.18.39.03.14.04.28.02.43-.02.14-.07.28-.14.4-.07.12-.17.23-.29.32l-8.9,6.57c-.19.14-.42.21-.65.21Z"/>
  <path class="st0" d="M10,14.51c-.23,0-.46-.07-.65-.21L.44,7.73c-.23-.17-.39-.43-.43-.72-.04-.29.03-.58.2-.81.17-.23.43-.39.72-.43.29-.04.58.03.81.2l8.25,6.08,8.25-6.08c.23-.17.53-.25.81-.2.29.04.55.2.72.43s.25.53.2.81c-.04.29-.2.55-.43.72l-8.9,6.57c-.19.14-.42.21-.65.21Z"/>
</svg>