<?xml version="1.0" encoding="UTF-8"?>
<svg id="Ebene_1" xmlns="http://www.w3.org/2000/svg" xmlns:xlink="http://www.w3.org/1999/xlink" version="1.1" viewBox="0 0 60 60">
  <!-- Generator: Adobe Illustrator 30.1.0, SVG Export Plug-In . SVG Version: 2.1.1 Build 136)  -->
  <defs>
    <style>
      .st0 {
        fill: none;
      }

      .st1 {
        fill: #fff;
      }

      .st2 {
        fill: #f175fa;
      }

      .st3 {
        clip-path: url(#clippath);
      }
    </style>
    <clipPath id="clippath">
      <rect class="st0" x="12.56" y="16.05" width="34.19" height="25.12"/>
    </clipPath>
  </defs>
  <circle class="st2" cx="30" cy="30" r="30"/>
  <g class="st3">
    <g>
      <path class="st1" d="M44.87,41.16c-.4,0-.79-.13-1.11-.37l-14.11-10.53-14.11,10.53c-.2.15-.42.26-.66.32-.24.06-.49.07-.73.04-.24-.04-.48-.12-.69-.25-.21-.13-.39-.3-.54-.5-.15-.2-.25-.43-.31-.67-.06-.24-.07-.49-.03-.74.07-.5.34-.95.74-1.24l15.22-11.37c.32-.24.71-.37,1.11-.37s.79.13,1.11.37l15.22,11.37c.32.24.55.57.67.95.12.38.12.79,0,1.17-.12.38-.36.71-.68.94-.32.23-.7.36-1.1.36Z"/>
      <path class="st1" d="M44.87,31.21c-.4,0-.79-.13-1.11-.37l-14.11-10.53-14.11,10.53c-.4.3-.9.43-1.39.35-.49-.07-.93-.34-1.23-.75-.3-.4-.42-.91-.35-1.41.07-.5.34-.95.74-1.24l15.22-11.37c.32-.24.71-.37,1.11-.37s.79.13,1.11.37l15.22,11.37c.32.24.55.57.67.95s.12.79,0,1.17-.36.71-.68.94c-.32.23-.7.36-1.1.36Z"/>
    </g>
  </g>
</svg>